<?xml version="1.0" encoding="UTF-8" standalone="no"?>
<!-- Created with Inkscape (http://www.inkscape.org/) -->

<svg
   width="89.973366mm"
   height="60.548531mm"
   viewBox="0 0 89.973366 60.548531"
   version="1.1"
   id="svg1"
   xml:space="preserve"
   xmlns="http://www.w3.org/2000/svg"
   xmlns:svg="http://www.w3.org/2000/svg"><defs
     id="defs1"><clipPath
       clipPathUnits="userSpaceOnUse"
       id="clipath_lpe_path-effect5-8-3"><rect
         style="display:none;fill:#1792e8;fill-opacity:1;stroke-width:0.264583"
         id="rect134"
         width="33.643414"
         height="1.1594205"
         x="114.12036"
         y="107.8905"
         rx="0"
         ry="0.43131575"
         transform="rotate(0.176071)"
         d="m 114.55168,107.8905 h 32.78078 c 0.23895,0 0.43131,0.19237 0.43131,0.43132 v 0.29679 c 0,0.23895 -0.19236,0.43131 -0.43131,0.43131 h -32.78078 c -0.23895,0 -0.43132,-0.19236 -0.43132,-0.43131 v -0.29679 c 0,-0.23895 0.19237,-0.43132 0.43132,-0.43132 z" /><path
         id="lpe_path-effect5-8-3"
         style="fill:#1792e8;fill-opacity:1;stroke-width:0.264583"
         class="powerclip"
         d="m 113.37226,98.858994 h 32.23422 v 20.852976 h -32.23422 z m 1.17942,9.031506 c -0.23895,0 -0.43132,0.19237 -0.43132,0.43132 v 0.29679 c 0,0.23895 0.19237,0.43131 0.43132,0.43131 h 32.78078 c 0.23895,0 0.43131,-0.19236 0.43131,-0.43131 v -0.29679 c 0,-0.23895 -0.19236,-0.43132 -0.43131,-0.43132 z" /></clipPath><clipPath
       clipPathUnits="userSpaceOnUse"
       id="clipath_lpe_path-effect5-8-3-0"><rect
         style="display:none;fill:#1792e8;fill-opacity:1;stroke-width:0.264583"
         id="rect4"
         width="33.643414"
         height="1.1594205"
         x="114.12036"
         y="107.8905"
         rx="0"
         ry="0.43131575"
         transform="rotate(0.176071)"
         d="m 114.55168,107.8905 h 32.78078 c 0.23895,0 0.43131,0.19237 0.43131,0.43132 v 0.29679 c 0,0.23895 -0.19236,0.43131 -0.43131,0.43131 h -32.78078 c -0.23895,0 -0.43132,-0.19236 -0.43132,-0.43131 v -0.29679 c 0,-0.23895 0.19237,-0.43132 0.43132,-0.43132 z" /><path
         id="lpe_path-effect5-8-3-0"
         style="fill:#1792e8;fill-opacity:1;stroke-width:0.264583"
         class="powerclip"
         d="m 113.37226,98.858994 h 32.23422 v 20.852976 h -32.23422 z m 1.17942,9.031506 c -0.23895,0 -0.43132,0.19237 -0.43132,0.43132 v 0.29679 c 0,0.23895 0.19237,0.43131 0.43132,0.43131 h 32.78078 c 0.23895,0 0.43131,-0.19236 0.43131,-0.43131 v -0.29679 c 0,-0.23895 -0.19236,-0.43132 -0.43131,-0.43132 z" /></clipPath></defs><g
     id="layer1"
     transform="translate(-10.756961,-4.1841339)"><path
       style="fill:#1792e8;fill-opacity:1;stroke-width:0.264583"
       id="rect1-3-8"
       width="22.234217"
       height="10.852981"
       x="118.37226"
       y="103.85899"
       ry="5.4264903"
       transform="matrix(0.57000937,0.2076082,-0.2076082,0.57000937,-21.636348,-43.95264)"
       rx="4.5946279"
       clip-path="url(#clipath_lpe_path-effect5-8-3)"
       d="m 122.96689,103.85899 h 13.04496 c 2.54542,0 4.59463,2.42022 4.59463,5.42649 0,3.00628 -2.04921,5.42649 -4.59463,5.42649 h -13.04496 c -2.54542,0 -4.59463,-2.42021 -4.59463,-5.42649 0,-3.00627 2.04921,-5.42649 4.59463,-5.42649 z" /><rect
       style="fill:#1792e8;fill-opacity:1;stroke-width:0.154295"
       id="rect1-9-7-1-6-6"
       width="40.12421"
       height="6.831389"
       x="23.194363"
       y="24.766304"
       transform="rotate(20.094695)"
       ry="0.39563382" /><rect
       style="fill:#1792e8;fill-opacity:1;stroke-width:0.154295"
       id="rect1-9-7-1-8-8-5"
       width="41.26791"
       height="7.0523582"
       x="22.659801"
       y="23.901848"
       transform="rotate(20.094695)"
       ry="0.39563382" /><rect
       style="fill:#c5f6ff;fill-opacity:1;stroke-width:0.154295"
       id="rect1-9-7-7-6"
       width="41.312511"
       height="28.727739"
       x="22.638935"
       y="-0.2556093"
       transform="rotate(20.094695)" /><rect
       style="fill:#1792e8;fill-opacity:1;stroke-width:0.146643"
       id="rect6-8-1"
       width="3.4410303"
       height="14.924053"
       x="41.048141"
       y="33.58564"
       rx="1.6911451"
       ry="1.371929"
       transform="rotate(19.636778)" /><g
       id="g110-6-7"
       transform="matrix(0.60626017,-0.02145792,0.02145792,0.60626017,-18.733177,-45.507466)"><rect
         style="fill:#e7fcff;fill-opacity:1;stroke:none;stroke-width:1.33754;stroke-linecap:round;stroke-linejoin:round;stroke-dasharray:none;stroke-opacity:1"
         id="rect107-3-9"
         width="5.2916665"
         height="44.979164"
         x="62.375519"
         y="94.323952" /><path
         style="fill:#e7fcff;fill-opacity:1;stroke:none;stroke-width:1.4;stroke-linecap:round;stroke-linejoin:round;stroke-dasharray:none;stroke-opacity:1"
         d="m 62.377592,94.330776 1.232152,-3.096216 4.086247,1.720785 -0.03762,1.754412 -3.331551,0.606388 z"
         id="path108-2-6" /><path
         style="fill:#e7fcff;fill-opacity:1;stroke:none;stroke-width:1.4;stroke-linecap:round;stroke-linejoin:round;stroke-dasharray:none;stroke-opacity:1"
         d="m 62.382378,139.3109 5.296361,2.16462 -0.02552,-2.59242 -3.446731,-0.5778 z"
         id="path110-1-8" /></g><g
       id="g111-0-4"
       transform="matrix(0.60626017,-0.02145792,0.02145792,0.60626017,-18.590196,-45.320306)"><g
         id="g110-9-20-3"
         transform="translate(6.6435977,2.5708558)"><rect
           style="fill:#e7fcff;fill-opacity:1;stroke:none;stroke-width:1.01968;stroke-linecap:round;stroke-linejoin:round;stroke-dasharray:none;stroke-opacity:1"
           id="rect107-0-5-1"
           width="3.9179282"
           height="46.754131"
           x="61.974918"
           y="92.399147" /><path
           style="fill:#e7fcff;fill-opacity:1;stroke:none;stroke-width:1.03575;stroke-linecap:round;stroke-linejoin:round;stroke-dasharray:none;stroke-opacity:1"
           d="m 61.98303,139.15904 3.918367,1.60143 -0.01888,-1.91793 -2.549969,-0.42747 z"
           id="path110-9-0-6" /><path
           style="fill:#e7fcff;fill-opacity:1;stroke:none;stroke-width:1.4;stroke-linecap:round;stroke-linejoin:round;stroke-dasharray:none;stroke-opacity:1"
           d="m 65.905165,92.140017 c -0.272851,-0.132292 -3.914193,-1.503126 -3.914193,-1.503126 l -0.01362,1.802883 3.911976,0.548028 z"
           id="path111-1-7" /></g></g><g
       id="g11"
       transform="translate(0.00137685,-27.920189)"
       style="fill:none;fill-opacity:1"><g
         id="g10"
         style="fill:none;fill-opacity:1"><path
           style="fill:none;fill-opacity:1;stroke:#1792e8;stroke-width:1.9;stroke-linecap:round;stroke-linejoin:round;stroke-dasharray:none;stroke-opacity:1"
           d="m 23.73928,43.539749 c -1.050562,2.056867 -2.024785,7.551266 -0.521905,9.42734"
           id="path48-7-3" /><path
           style="fill:none;fill-opacity:1;stroke:#1792e8;stroke-width:1.9;stroke-linecap:round;stroke-linejoin:round;stroke-dasharray:none;stroke-opacity:1"
           d="m 29.650124,44.260243 c -0.947562,4.298927 -5.571779,8.907037 -7.964375,10.543112 -1.400189,0.957476 -3.10692,2.206958 -4.945633,2.597601"
           id="path49-8-7" /></g><path
         style="fill:none;fill-opacity:1;stroke:#1792e8;stroke-width:1.9;stroke-linecap:round;stroke-linejoin:round;stroke-dasharray:none;stroke-opacity:1"
         d="m 31.785152,47.941405 c -0.385834,0.206027 -0.646394,0.413894 -0.878446,0.702643 -0.439867,0.547278 -0.881582,1.098886 -1.240751,1.702355 -0.907861,1.525437 -3.934793,7.587091 -0.702699,8.406713 0.936799,0.237558 2.017886,-0.848869 2.323701,-1.333337 1.141664,-1.808529 2.828893,-5.816443 2.755685,-7.938254 -0.0095,-0.27546 -0.190745,-1.197151 -0.6931,-1.475625 -0.188432,-0.104462 -0.285488,-0.130903 -0.793087,-0.172761 -0.210957,-0.01739 -0.771303,0.10827 -0.771303,0.10827 z"
         id="path50-4-1" /><path
         style="fill:none;fill-opacity:1;stroke:#1792e8;stroke-width:1.9;stroke-linecap:round;stroke-linejoin:round;stroke-dasharray:none;stroke-opacity:1"
         d="m 36.737863,51.716264 c 0.112845,-0.30098 0.617902,-1.656905 0.817918,-1.908541 0.127184,-0.160008 -0.546805,1.185138 -0.580383,1.274892 -0.265267,0.707576 -0.530506,1.415131 -0.795764,2.122696 -0.832437,2.220524 -1.878301,4.452274 -1.579347,6.834581 0.06705,0.534569 0.481807,0.943385 0.951347,1.138617 0.476172,0.147125 1.159928,0.146273 1.520772,0.03709 0.627378,-0.189831 0.951494,-0.606295 1.190596,-1.0467 1.320304,-2.821596 2.114616,-5.908713 3.558746,-8.54984"
         id="path51-4-7" /><path
         style="fill:none;fill-opacity:1;stroke:#1792e8;stroke-width:1.9;stroke-linecap:round;stroke-linejoin:round;stroke-dasharray:none;stroke-opacity:1"
         d="m 40.694738,63.165408 c 0.314294,-2.791849 1.748649,-6.118862 3.010921,-9.061552 0.218389,-0.509084 0.700145,-1.368352 1.037111,-1.807806 0.174195,-0.258111 0.0053,0.596899 0.0046,0.693024 -0.006,0.706125 -0.225008,1.360878 -0.240248,2.066869 -0.05574,2.580476 0.136967,5.07412 0.659319,7.604267 l 0.451819,2.051942 c 0.240242,-2.964534 0.883442,-5.090257 2.210839,-7.810882 0.404787,-0.608796 1.022435,-2.230773 1.890708,-2.956309"
         id="path52-1-3" /><path
         style="fill:none;fill-opacity:1;stroke:#1792e8;stroke-width:1.95068;stroke-linecap:round;stroke-linejoin:round;stroke-dasharray:none;stroke-opacity:1"
         d="m 54.576721,58.440661 c 0.27447,-0.987361 0.05264,-2.085237 -0.838912,-2.633868 -0.707517,-0.435363 -1.626965,0.143466 -2.157773,0.789873 -1.080366,1.315703 -3.398024,5.139032 -2.882965,7.460822 0.202471,0.912662 0.869644,1.707623 1.582682,2.294804 0.366406,0.301739 0.95692,0.317937 1.402429,0.163431 0.939857,-0.325981 2.713491,-3.525664 3.010493,-4.506052 0.242926,-0.802028 -1.637582,-1.092234 -2.06162,-1.185093 -0.200123,-0.04383 -0.524844,-0.139337 -0.743165,-0.210288 -0.02117,-0.0065 -0.0827,-0.03344 -0.06255,-0.02411 0.101582,0.04677 0.204379,0.0909 0.306587,0.136438"
         id="path53-5-9" /></g><g
       id="g134"
       transform="matrix(1.0202857,0,0,1.0202857,4.1945457,-174.43373)"
       style="stroke:#1792e8;stroke-opacity:1"><g
         id="g4"
         transform="translate(1.0048758,2.1718284)"
         style="stroke:#1792e8;stroke-opacity:1"><g
           id="g6"
           transform="translate(-1.6207674,-2.2042437)"
           style="stroke:#1792e8;stroke-opacity:1"><path
             style="fill:none;fill-opacity:0.0707071;stroke:#1792e8;stroke-width:0.966935;stroke-linecap:round;stroke-linejoin:round;stroke-dasharray:none;stroke-opacity:1"
             d="m 27.656211,175.5824 c -0.107226,0.22395 -0.44393,0.73154 -0.532299,0.96355 -0.190965,0.50138 -0.3684,1.23715 -0.443306,1.76585 -0.09595,0.67773 -0.119736,1.6298 0.795613,1.67267 0.175973,0.008 0.59162,-0.31558 0.621474,-0.34653 0.483812,-0.42059 1.590106,-2.93656 1.790503,-2.6753 -0.07935,0.22046 -0.208676,0.63121 -0.266229,0.85831 -0.02564,0.10115 -0.326643,1.45437 -0.227317,2.27739 0.09933,0.82301 0.687192,0.91769 0.687192,0.91769 0.522427,-0.0995 1.990052,-3.12238 2.058204,-4.24446"
             id="path68-9-0" /><path
             style="fill:none;fill-opacity:0.0707071;stroke:#1792e8;stroke-width:0.966935;stroke-linecap:round;stroke-linejoin:round;stroke-dasharray:none;stroke-opacity:1"
             d="m 34.072871,177.60755 c -0.121407,0.2793 -0.646845,1.34322 -0.782724,1.80227 -0.201266,0.56994 -0.380892,1.06341 -0.595257,1.62853 -0.13068,0.26738 -0.196557,0.67084 -0.18503,0.93249"
             id="path69-6-1" /><path
             style="fill:none;fill-opacity:0.0707071;stroke:#1792e8;stroke-width:0.966935;stroke-linecap:round;stroke-linejoin:round;stroke-dasharray:none;stroke-opacity:1"
             d="m 34.085666,182.48686 c 0.224016,-0.70689 0.701143,-1.50516 1.001885,-2.18327 0.142503,-0.32132 0.651792,-1.53501 0.81756,-1.82861 l 0.222088,2.45637 c 0.101613,0.81705 0.321558,2.33373 0.768391,2.57437 0.184691,-0.26767 0.361356,-0.53689 0.598833,-1.12545 0.490039,-1.21453 0.811423,-2.08916 1.088354,-3.15836"
             id="path70-3-0" /><g
             id="g5"
             transform="translate(0.19449209,0.0648307)"
             style="stroke:#1792e8;stroke-opacity:1"><path
               style="fill:none;fill-opacity:0.0707071;stroke:#1792e8;stroke-width:0.966935;stroke-linecap:round;stroke-linejoin:round;stroke-dasharray:none;stroke-opacity:1"
               d="m 40.228812,180.52772 c -0.22283,1.27711 -0.97102,2.4011 -1.24065,3.66111 -0.0205,0.0961 0.1592,0.11512 0.2388,0.17278"
               id="path71-5-6" /><path
               style="fill:none;fill-opacity:0.0707071;stroke:#1792e8;stroke-width:0.966935;stroke-linecap:round;stroke-linejoin:round;stroke-dasharray:none;stroke-opacity:1"
               d="m 39.963253,179.83447 c 0.240848,0.0197 0.48643,0.007 0.722539,0.059 0.869296,0.18921 1.609637,0.63131 1.737908,1.59989 0.03724,0.28029 -0.01368,0.58022 -0.128895,0.8384 -0.478315,1.07131 -0.946309,1.52764 -2.030916,1.96984 -0.292091,0.11907 -1.672965,0.20957 -1.15528,-0.30865"
               id="path72-1-6" /></g><path
             style="fill:none;fill-opacity:0.0707071;stroke:#1792e8;stroke-width:1.00647;stroke-linecap:round;stroke-linejoin:round;stroke-dasharray:none;stroke-opacity:1"
             d="m 46.098424,182.48323 c -0.190999,-0.28199 -0.390763,-0.51908 -0.782018,-0.46442 -0.399922,0.0558 -0.968112,0.63549 -1.045971,0.72808 -0.10641,0.12661 -0.325448,0.44079 -0.398682,0.58905 -0.594772,1.01306 -0.733728,2.30859 0.380407,2.82103 0.928255,0.42693 1.322026,-0.37563 1.626365,-0.97469 0.330678,-0.65089 0.627197,-1.26609 0.436113,-2.02423 -0.0349,-0.13855 -0.116435,-0.26107 -0.174569,-0.39163"
             id="path73-8-7" /><path
             style="fill:none;fill-opacity:0.0707071;stroke:#1792e8;stroke-width:0.966935;stroke-linecap:round;stroke-linejoin:round;stroke-dasharray:none;stroke-opacity:1"
             d="m 48.269552,183.48273 c 0.02247,-0.0831 0.150896,-0.22667 0.06772,-0.24929 -0.08315,-0.0227 -0.03928,0.168 -0.06772,0.24929 -0.253515,0.72555 -0.294527,0.66515 -0.547321,1.51113 -0.185686,0.62143 -0.478852,1.54353 -0.269887,2.2086 0.02355,0.0746 0.06382,0.16062 0.135734,0.19138 0.134288,0.0575 0.295907,0.097 0.435152,0.0528 0.145774,-0.0463 0.24133,-0.18972 0.346395,-0.30083 0.196745,-0.20803 0.38368,-0.42606 0.55672,-0.65417 0.298583,-0.39363 0.582745,-0.79836 0.856887,-1.2094 0.118187,-0.17718 0.211393,-0.36978 0.318907,-0.55363 0.449767,-0.76911 5.62e-4,0.0235 0.221155,-0.3843 -0.172368,0.50621 -0.394134,1.46423 -0.484906,2.13337 -0.02969,0.4279 -0.141403,0.72751 0.07768,1.28462 0.167525,0.35301 0.411007,0.73523 0.558547,0.70322 0.298159,-0.0647 1.12675,-1.18827 1.215121,-1.3029 0.603284,-0.78264 0.755326,-1.76458 1.073633,-2.67556"
             id="path74-7-4" /></g></g></g><path
       style="fill:#ffffff;fill-opacity:1;stroke:none;stroke-width:1.16832;stroke-linecap:round;stroke-linejoin:round;stroke-dasharray:none;stroke-opacity:1"
       d="m 31.277898,11.442201 c 0,0 0.14089,1.40793 0.66389,1.97659 0.48783,0.53039 1.92569,0.56889 1.92569,0.56889 0,0 -1.2863,0.27637 -1.77816,0.74296 -0.51509,0.48862 -0.64339,2.04136 -0.64339,2.04136 0,0 -0.26301,-1.47105 -0.79982,-2.0045 -0.5368,-0.53346 -1.97903,-0.64428 -1.97903,-0.64428 0,0 1.45139,-0.12822 1.97337,-0.63582 0.53622,-0.52132 0.63745,-2.0452 0.63745,-2.0452 z"
       id="path107-5-1" /><path
       style="fill:#ffffff;fill-opacity:1;stroke:none;stroke-width:0.834232;stroke-linecap:round;stroke-linejoin:round;stroke-dasharray:none;stroke-opacity:1"
       d="m 33.254011,14.844933 c 0,0 0.10052,1.00533 0.47404,1.4114 0.34834,0.37872 1.37504,0.40621 1.37504,0.40621 0,0 -0.91848,0.19733 -1.26969,0.53052 -0.36781,0.34888 -0.45941,1.45762 -0.45941,1.45762 0,0 -0.18781,-1.05041 -0.57111,-1.43132 -0.38332,-0.38091 -1.41312,-0.46005 -1.41312,-0.46005 0,0 1.03636,-0.0916 1.40908,-0.45399 0.38287,-0.37225 0.45517,-1.46039 0.45517,-1.46039 z"
       id="path107-3-2-7" /><path
       style="display:inline;fill:#1792e8;fill-opacity:1;stroke:none;stroke-width:0.264583;stroke-opacity:1"
       id="rect1-3-8-3"
       width="22.234217"
       height="10.852981"
       x="118.37226"
       y="103.85899"
       ry="5.4264903"
       transform="matrix(-0.56994736,-0.20777838,0.20777838,-0.56994736,133.09957,111.01914)"
       rx="4.5946279"
       clip-path="url(#clipath_lpe_path-effect5-8-3-0)"
       d="m 122.96689,103.85899 h 13.04496 c 2.54542,0 4.59463,2.42022 4.59463,5.42649 0,3.00628 -2.04921,5.42649 -4.59463,5.42649 h -13.04496 c -2.54542,0 -4.59463,-2.42021 -4.59463,-5.42649 0,-3.00627 2.04921,-5.42649 4.59463,-5.42649 z" /><rect
       style="display:inline;fill:#1792e8;fill-opacity:1;stroke-width:0.154295"
       id="rect1-9-7-1-6-6-6"
       width="40.12421"
       height="6.831389"
       x="-104.54337"
       y="0.12685376"
       transform="rotate(-159.88821)"
       ry="0.39563382" /><rect
       style="display:inline;fill:#1792e8;fill-opacity:1;stroke-width:0.154295"
       id="rect1-9-7-1-8-8-5-5"
       width="41.26791"
       height="7.0523582"
       x="-105.0779"
       y="-0.73760241"
       transform="rotate(-159.88821)"
       ry="0.39563382" /><rect
       style="display:inline;fill:#c5f6ff;fill-opacity:1;stroke-width:0.154295"
       id="rect1-9-7-7-6-2"
       width="41.312511"
       height="28.727739"
       x="-105.09878"
       y="-24.89506"
       transform="rotate(-159.88821)" /><rect
       style="display:inline;fill:#1792e8;fill-opacity:1;stroke:none;stroke-width:0.146643;stroke-opacity:1"
       id="rect6-8-1-0"
       width="3.4410303"
       height="14.924053"
       x="-86.488586"
       y="7.9260888"
       rx="1.6911451"
       ry="1.371929"
       transform="rotate(-160.34612)" /><g
       id="g110-6-7-8"
       transform="matrix(-0.60626655,0.02127693,-0.02127693,-0.60626655,130.19593,112.57309)"
       style="display:inline"><rect
         style="fill:#e7fcff;fill-opacity:1;stroke:none;stroke-width:1.33754;stroke-linecap:round;stroke-linejoin:round;stroke-dasharray:none;stroke-opacity:1"
         id="rect107-3-9-5"
         width="5.2916665"
         height="44.979164"
         x="62.375519"
         y="94.323952" /><path
         style="fill:#e7fcff;fill-opacity:1;stroke:none;stroke-width:1.4;stroke-linecap:round;stroke-linejoin:round;stroke-dasharray:none;stroke-opacity:1"
         d="m 62.377592,94.330776 1.232152,-3.096216 4.086247,1.720785 -0.03762,1.754412 -3.331551,0.606388 z"
         id="path108-2-6-9" /><path
         style="fill:#e7fcff;fill-opacity:1;stroke:none;stroke-width:1.4;stroke-linecap:round;stroke-linejoin:round;stroke-dasharray:none;stroke-opacity:1"
         d="m 62.382378,139.3109 5.296361,2.16462 -0.02552,-2.59242 -3.446731,-0.5778 z"
         id="path110-1-8-6" /></g><g
       id="g111-0-4-0"
       transform="matrix(-0.60626655,0.02127693,-0.02127693,-0.60626655,130.053,112.38588)"
       style="display:inline"><g
         id="g110-9-20-3-5"
         transform="translate(6.6435977,2.5708558)"><rect
           style="fill:#e7fcff;fill-opacity:1;stroke:none;stroke-width:1.01968;stroke-linecap:round;stroke-linejoin:round;stroke-dasharray:none;stroke-opacity:1"
           id="rect107-0-5-1-2"
           width="3.9179282"
           height="46.754131"
           x="61.974918"
           y="92.399147" /><path
           style="fill:#e7fcff;fill-opacity:1;stroke:none;stroke-width:1.03575;stroke-linecap:round;stroke-linejoin:round;stroke-dasharray:none;stroke-opacity:1"
           d="m 61.98303,139.15904 3.918367,1.60143 -0.01888,-1.91793 -2.549969,-0.42747 z"
           id="path110-9-0-6-5" /><path
           style="fill:#e7fcff;fill-opacity:1;stroke:none;stroke-width:1.4;stroke-linecap:round;stroke-linejoin:round;stroke-dasharray:none;stroke-opacity:1"
           d="m 65.905165,92.140017 c -0.272851,-0.132292 -3.914193,-1.503126 -3.914193,-1.503126 l -0.01362,1.802883 3.911976,0.548028 z"
           id="path111-1-7-6" /></g></g><path
       style="display:inline;fill:#ffffff;fill-opacity:1;stroke:none;stroke-width:1.16832;stroke-linecap:round;stroke-linejoin:round;stroke-dasharray:none;stroke-opacity:1"
       d="m 93.524834,41.784262 c 0,0 -0.140471,-1.407972 -0.663301,-1.97679 -0.487671,-0.530534 -1.925518,-0.569464 -1.925518,-0.569464 0,0 1.286381,-0.275986 1.77838,-0.742428 0.515237,-0.488467 0.644,-2.04117 0.644,-2.04117 0,0 0.26257,1.471129 0.799221,2.004739 0.536641,0.533621 1.978838,0.644871 1.978838,0.644871 0,0 -1.451428,0.127788 -1.97356,0.635231 -0.536376,0.52116 -0.63806,2.045011 -0.63806,2.045011 z"
       id="path107-5-1-4" /><path
       style="display:inline;fill:#ffffff;fill-opacity:1;stroke:none;stroke-width:0.834232;stroke-linecap:round;stroke-linejoin:round;stroke-dasharray:none;stroke-opacity:1"
       d="m 91.71938,43.718149 c 0,0 -0.100217,-1.00536 -0.473618,-1.411541 -0.348227,-0.378824 -1.374919,-0.406622 -1.374919,-0.406622 0,0 0.918539,-0.197055 1.269848,-0.53014 0.367915,-0.34877 0.459846,-1.457482 0.459846,-1.457482 0,0 0.187496,1.050465 0.570683,1.431489 0.383205,0.381025 1.412983,0.460473 1.412983,0.460473 0,0 -1.036388,0.09129 -1.409216,0.453569 -0.382982,0.372135 -0.455607,1.460254 -0.455607,1.460254 z"
       id="path107-3-2-7-2" /><g
       id="g7"
       transform="translate(-0.55530633,-28.63851)"><path
         style="fill:none;fill-opacity:1;stroke:#1791e8;stroke-width:0.931016;stroke-linecap:round;stroke-linejoin:round;stroke-dasharray:none;stroke-opacity:1"
         d="m 156.32436,166.26552 c 0.0202,-0.48469 0.11809,-1.32217 -0.29477,-1.67699 -0.12232,-0.10511 -0.30141,-0.27119 -0.44327,-0.19435 -0.91587,0.49614 -1.69261,1.92108 -1.89944,3.1999 -0.0179,0.11084 -0.0366,0.22061 -0.0347,0.33162 0.003,0.13752 0.0261,0.54799 0.22347,0.63527 0.70192,0.24886 1.56613,0.0727 2.21627,-0.47502"
         id="path75-4-0"
         transform="rotate(-2.0270755,-2340.1414,2931.5886)" /><path
         style="fill:none;fill-opacity:1;stroke:#1791e8;stroke-width:0.931016;stroke-linecap:round;stroke-linejoin:round;stroke-dasharray:none;stroke-opacity:1"
         d="m 158.50801,166.28486 c 0.0436,-0.11767 0.0864,-0.23578 0.13053,-0.35328 0.0123,-0.0339 0.0547,-0.13394 0.0409,-0.10046 -0.3758,0.92255 -0.72712,1.85195 -1.09194,2.77928 -0.0724,0.18482 -0.44539,0.93737 -0.45547,1.15093 -0.003,0.0485 0.1757,0.0791 0.18131,0.081 0.77487,0.22291 1.51243,0.52076 2.26207,0.81353"
         id="path76-8-3"
         transform="rotate(-2.0270755,-2340.1414,2931.5886)" /><path
         style="fill:none;fill-opacity:1;stroke:#1791e8;stroke-width:0.931016;stroke-linecap:round;stroke-linejoin:round;stroke-dasharray:none;stroke-opacity:1"
         d="m 162.55469,167.49231 -0.001,-0.0256 c -0.0787,0.2928 -0.18858,0.5862 -0.29007,0.87145 -0.23768,0.74511 -0.58417,1.48153 -0.89535,2.198 -0.0713,0.16472 -0.25234,0.51069 -0.26717,0.65586 -0.004,0.0417 0.0718,0.0429 0.10771,0.0645"
         id="path78-8-4"
         transform="rotate(-2.0270755,-2340.1414,2931.5886)" /><path
         style="fill:none;fill-opacity:1;stroke:#1791e8;stroke-width:0.931016;stroke-linecap:round;stroke-linejoin:round;stroke-dasharray:none;stroke-opacity:1"
         d="m 162.60871,167.46743 c 1.98647,0.80919 1.4374,0.51939 2.59335,1.08953"
         id="path79-9-7"
         transform="rotate(-2.0270755,-2340.1414,2931.5886)" /><path
         style="fill:none;fill-opacity:1;stroke:#1791e8;stroke-width:0.931016;stroke-linecap:round;stroke-linejoin:round;stroke-dasharray:none;stroke-opacity:1"
         d="m 161.68163,169.30671 c 1.71287,0.70599 0.95494,0.39617 2.2724,0.93283"
         id="path80-1-9"
         transform="rotate(-2.0270755,-2340.1414,2931.5886)" /><path
         style="fill:none;fill-opacity:1;stroke:#1791e8;stroke-width:0.931016;stroke-linecap:round;stroke-linejoin:round;stroke-dasharray:none;stroke-opacity:1"
         d="m 161.16321,171.07269 c 0.1267,0.12738 -0.1438,0.13805 0.01,0.23134 0.16031,0.0973 1.15875,0.50324 1.29536,0.54381 0.61834,0.18339 0.44563,0.0871 0.99868,0.28281"
         id="path81-2-6"
         transform="rotate(-2.0270755,-2340.1414,2931.5886)" /><path
         style="fill:none;fill-opacity:1;stroke:#1791e8;stroke-width:0.931016;stroke-linecap:round;stroke-linejoin:round;stroke-dasharray:none;stroke-opacity:1"
         d="m 164.54067,172.91006 c 1.16495,-1.14202 -0.0767,0.0401 1.94012,-1.86885 0.37624,-0.3561 0.73226,-0.73303 1.09304,-1.10479 0.14718,-0.15164 0.28195,-0.31509 0.43066,-0.46526 0.0189,-0.0191 0.0726,-0.0671 0.07,-0.0403 -0.022,0.23101 -0.096,0.45434 -0.13121,0.6837 -0.10401,0.67691 -0.0976,1.36637 -0.16444,2.04795 -0.0513,0.52264 -0.23236,1.48093 -0.0629,2.06176 0.0254,0.0869 0.18928,0.1185 0.27278,0.15248"
         id="path82-3-8"
         transform="rotate(-2.0270755,-2340.1414,2931.5886)" /><path
         style="fill:none;fill-opacity:1;stroke:#1791e8;stroke-width:0.931016;stroke-linecap:round;stroke-linejoin:round;stroke-dasharray:none;stroke-opacity:1"
         d="m 165.56926,171.93059 c 0.53844,0.39141 0.76855,0.40611 1.38772,0.57248 0.22045,0.0592 0.43537,0.13727 0.65357,0.20426"
         id="path83-7-6"
         transform="rotate(-2.0270755,-2340.1414,2931.5886)" /><path
         style="fill:none;fill-opacity:1;stroke:#1791e8;stroke-width:0.931016;stroke-linecap:round;stroke-linejoin:round;stroke-dasharray:none;stroke-opacity:1"
         d="m 169.20434,174.77987 c 0.20329,-0.5096 0.5306,-1.2902 0.73327,-1.80006 0.11945,-0.3004 0.23699,-0.60157 0.35432,-0.90282 0.0238,-0.062 0.52661,-1.41633 0.57817,-1.45229 0.035,-0.0243 0.0797,0.19569 0.11481,0.343 0.0949,0.39754 0.18364,0.79652 0.27701,1.19442 0.1833,0.78103 0.54166,1.38553 0.69852,2.17221 l 0.0697,1.59867 c 0.45685,-1.05558 0.92531,-3.02851 1.65853,-3.93982"
         id="path84-6-7"
         transform="rotate(-2.0270755,-2340.1414,2931.5886)" /><path
         style="fill:none;fill-opacity:1;stroke:#1791e8;stroke-width:0.931016;stroke-linecap:round;stroke-linejoin:round;stroke-dasharray:none;stroke-opacity:1"
         d="m 174.00705,176.82129 c 0.56669,-1.09534 0.94325,-2.42295 1.50618,-3.51985 0.0936,-0.1824 0.23509,-0.33596 0.35263,-0.50393"
         id="path85-4-2"
         transform="rotate(-2.0270755,-2340.1414,2931.5886)" /><path
         style="fill:none;fill-opacity:1;stroke:#1791e8;stroke-width:0.931016;stroke-linecap:round;stroke-linejoin:round;stroke-dasharray:none;stroke-opacity:1"
         d="m 175.79613,177.56603 c 0.18936,-0.42608 0.58611,-1.30782 0.79834,-1.723 0.24411,-0.47746 0.43345,-1.01579 0.65083,-1.51224 0.0472,-0.10702 0.24469,-0.48237 0.28881,-0.59069 0.21659,-0.45098 0.17949,0.88693 0.19638,1.05701 0.0596,0.30883 0.1226,0.61732 0.20041,0.92209 0.18632,0.73014 0.44032,1.44317 0.59899,2.17982 0.0633,0.29337 0.20164,0.52206 0.28929,0.80907 0.21793,0.71371 0.50833,-1.16255 0.60969,-1.50379 0.25341,-0.75096 0.66106,-1.72119 1.0342,-2.42037"
         id="path86-7-3"
         transform="rotate(-2.0270755,-2340.1414,2931.5886)" /><path
         style="fill:none;fill-opacity:1;stroke:#1791e8;stroke-width:0.931016;stroke-linecap:round;stroke-linejoin:round;stroke-dasharray:none;stroke-opacity:1"
         d="m 184.12551,177.54679 c -0.066,-0.16694 0.0351,-0.45052 -0.02,-0.62132 -0.14401,-0.44557 -0.33011,-0.80775 -0.7478,-1.11069 -0.067,-0.0487 -0.14215,-0.10484 -0.22495,-0.10538 -0.55207,-0.004 -1.0732,0.61838 -1.31127,0.96313 -0.24401,0.35341 -0.75246,1.38652 -0.88463,1.86246 -0.22928,0.82573 0.18753,1.52084 0.96604,1.83796 0.16335,0.0666 0.79196,-0.0417 0.88184,-0.0932 0.36076,-0.20699 1.13988,-0.78291 1.2064,-1.2515 0.0211,-0.14839 -0.94851,-0.51844 -1.03427,-0.5522 -0.0809,-0.0316 -0.16261,-0.0612 -0.24379,-0.0921 -0.0123,-0.005 -0.0459,-0.0187 -0.0346,-0.0141 l 0.10346,0.0421"
         id="path87-8-7"
         transform="rotate(-2.0270755,-2340.1414,2931.5886)" /></g><g
       id="g12"
       transform="translate(0.00137685,-27.920189)"
       style="fill:none;fill-opacity:1"><g
         id="g8"
         transform="matrix(0.99640245,-0.0367373,0.03526658,1.0379553,-104.51781,-87.636771)"
         style="fill:none;fill-opacity:1;stroke-width:1.9;stroke-dasharray:none"><g
           id="g9"
           transform="translate(-0.10121888,0.9841868)"
           style="fill:none;fill-opacity:1"><path
             style="fill:none;fill-opacity:1;stroke:#1792e8;stroke-width:1.9;stroke-linecap:round;stroke-linejoin:round;stroke-dasharray:none;stroke-opacity:1"
             d="m 162.52592,146.47075 c -1.287,2.78007 -2.80539,5.85746 -3.74445,8.74179 -0.1598,0.47745 -0.35435,1.05608 -0.0485,0.4192"
             id="path54-4-8"
             transform="translate(1.0702536e-6)" /><path
             style="fill:none;fill-opacity:1;stroke:#1792e8;stroke-width:1.9;stroke-linecap:round;stroke-linejoin:round;stroke-dasharray:none;stroke-opacity:1"
             d="m 161.87784,145.57374 c 0.91943,-0.26226 1.49476,-0.1209 2.15112,0.0872 0.49608,0.15729 1.2572,0.27211 1.84929,0.82384 0.40865,0.3808 2.03045,1.23792 1.06628,3.16036 -0.76045,1.31656 -2.92465,0.75502 -3.84955,0.82556 -0.0422,0.001 -1.1538,-0.0447 -0.98142,0.0489 1.45142,0.78857 5.31751,2.13121 4.32555,4.40677 -0.9196,2.10948 -4.28915,1.40611 -5.92932,1.24813 -0.98598,-0.095 -1.96585,-0.24623 -2.95087,-0.35081 -0.4697,-0.0499 -0.94098,-0.086 -1.41258,-0.11249 -0.18962,-0.0109 -0.39896,-0.0824 -0.56978,6e-4"
             id="path55-7-7" /></g></g><path
         style="fill:none;fill-opacity:1;stroke:#1792e8;stroke-width:1.9;stroke-linecap:round;stroke-linejoin:round;stroke-dasharray:none;stroke-opacity:1"
         d="m 67.017341,72.694976 c 1.306146,-2.554619 2.414552,-6.478978 3.140395,-9.23884 0.201382,-0.765692 0.214859,-1.522832 0.87054,-1.767638 0.364563,-0.136121 1.962759,0.945675 2.1467,1.289074 0.26776,0.499902 0.468213,0.953865 0.425884,1.519497 -0.109692,1.466327 -1.872187,1.686207 -2.987968,1.895635 -0.34684,0.06521 -0.755125,-0.03371 -1.045455,0.167065 -0.203311,0.140679 0.204808,0.888251 0.432713,1.373743 0.63522,1.353118 1.79744,4.937293 2.552634,5.980553 0.440898,0.609077 1.375082,1.486599 2.422989,1.867441"
         id="path56-8-9" /><path
         style="fill:none;fill-opacity:1;stroke:#1792e8;stroke-width:1.9;stroke-linecap:round;stroke-linejoin:round;stroke-dasharray:none;stroke-opacity:1"
         d="m 80.558615,66.216146 c -2.797282,-3.789787 -7.355197,1.364647 -6.563694,4.691985 0.60717,2.552434 4.424675,4.56669 6.193668,1.642617 0.865359,-1.430404 0.878124,-1.947165 0.928742,-3.98449 -0.115951,-0.793881 0.05212,-1.151121 -0.558716,-2.350112 z"
         id="path57-1-9" /><path
         style="fill:none;fill-opacity:1;stroke:#1792e8;stroke-width:1.9;stroke-linecap:round;stroke-linejoin:round;stroke-dasharray:none;stroke-opacity:1"
         d="m 88.240443,69.087216 c -2.799638,-3.510606 -4.735524,-0.236538 -4.858796,1.674045 -0.21209,3.287158 2.843274,2.006623 2.686693,5.167253 -0.04569,0.922323 -0.886479,1.865556 -1.713526,2.27414 -1.063084,0.525217 -2.577116,-0.209404 -3.497033,-1.027991 -0.29242,-0.260209 -0.655253,-1.017465 -0.668974,-1.187994"
         id="path58-3-6" /><path
         style="fill:none;fill-opacity:1;stroke:#1792e8;stroke-width:1.78002;stroke-linecap:round;stroke-linejoin:round;stroke-dasharray:none;stroke-opacity:1"
         d="m 88.660013,80.267954 c -0.567621,-1.844972 0.905555,-1.070431 0.860214,-0.750031 -0.147608,1.043062 0.0837,-0.273719 -0.860214,0.750031 z"
         id="path59-9" /></g></g></svg>
